<?xml version="1.0" encoding="utf-8"?>
<!-- Generator: Adobe Illustrator 24.0.2, SVG Export Plug-In . SVG Version: 6.00 Build 0)  -->
<svg version="1.1" id="Capa_1" xmlns="http://www.w3.org/2000/svg" xmlns:xlink="http://www.w3.org/1999/xlink" x="0px" y="0px"
	 viewBox="0 0 491.4 140" style="enable-background:new 0 0 491.4 140;" xml:space="preserve">
<style type="text/css">
	.st0{fill:#00ABE1;}
</style>
<g id="_x23_00abe1ff">
	<path id="path7" class="st0" d="M101.5,23.1c4-0.6,8.5-0.7,12.1,1.5c5.2,3,8.1,8.4,10.2,13.7c5.7,15.3,6.3,31.9,3.9,47.9
		c-0.5,4.1-2.2,8.7-6.3,10.5c-2.4,0.8-5.6,0.6-7.3-1.5c-2.7-3.2-1.9-7.6-1.6-11.4c0.9-6,1.2-12.1,0.9-18.2c0-2.8-1-5.8-3.4-7.4
		c-2.1-1.5-5.1-1.2-7.1,0.2c-3.5,2.2-5.8,5.7-7.6,9.2c-4.6,9.1-7.1,19-10.5,28.6c-1.7,4.4-4.5,8.7-8.6,11.4
		c-4.9,3.4-11.2,4.2-17.1,4c-7.5-0.3-14.3-4.9-18.2-11c-4.9-7.7-9.3-15.7-14.1-23.5c-1.5-2.3-3.6-5.1-6.8-4.8
		c-3.3,0.3-4.6,3.9-4.5,6.7c0.2,9.6,5,18.3,6.7,27.6c0.6,2.9-0.3,6.5-3.2,7.8c-1.8,0.2-3.7,0.5-5.6,0c-2.7-1-4-3.6-5.2-6
		C3.9,98.9,1.3,88.6,0,78.3C0.2,73-0.3,67.6,0.8,62.4c1.6-8.5,4-17.6,10.5-23.9c5.6-5.5,15.3-7.2,22.1-2.8
		c6.6,4.4,10.7,11.3,15.1,17.7c3.2,4.9,6.2,10.7,12,13.1c4,1.9,9.2,0.7,12.2-2.5c2.1-2.1,3.2-5,4.3-7.7c2.4-5.8,4.8-11.6,7.4-17.3
		C87.5,31.8,93.3,25,101.5,23.1z"/>
	<path id="path9" class="st0" d="M394.4,41.5c3.1-0.2,6.1-0.1,9.2,0c0.2,3-0.2,6,0.3,8.9c3.1-0.1,6.3-0.2,9.4,0
		c0.1,2.6,0.4,5.3-0.2,7.9c-3.1-0.1-6.2,0-9.3,0c-0.1,6.3,0,12.7-0.1,19.1c0,2.7,0,5.8,2.1,7.8c2.1,2,5.3,1.7,8,1.9
		c0.4,2.7,0.4,5.5-0.1,8.2c-5.1,0.1-10.7,0-14.9-3.3c-3.8-2.9-4.8-7.8-4.9-12.2c-0.1-11.8,0-23.7,0-35.5
		C393.9,43.5,393.2,41.8,394.4,41.5z"/>
	<path id="path11" class="st0" d="M163.3,53.8c4.6-4,11.2-4.5,17.1-4.3c4.8,0,9.7,1.3,13.5,4.2c4.3-4.3,10.9-4.3,16.6-4.2
		c5.2,0,10.8,1.5,14.3,5.4c2.6,2.9,3.1,7,3.2,10.7c0,7.9,0,15.7,0,23.6c0,2,0.2,4.1-0.4,6.1c-3-0.1-6.1,0.1-9.1-0.2l-0.3-0.4
		c-0.3-10.3,0.3-20.5-0.3-30.8c0.1-3.3-3.1-5.7-6.3-5.9c-3.6-0.2-7.9-0.6-10.9,1.9c-2.2,1.8-2,4.8-2.1,7.3c-0.1,8.1-0.1,16.3,0,24.5
		c-0.2,1.1,0.4,2.8-0.6,3.6c-3.1,0.1-6.2,0.2-9.3-0.1c0-10.4,0.3-20.8-0.3-31.2c0-3.5-3.6-5.9-7-6c-3.1-0.2-6.4-0.4-9.2,1.1
		c-1.8,1-2.9,2.9-2.9,4.8c-0.7,10.4,0,20.9-0.4,31.4c-3.1,0-6.2,0-9.4,0c-0.3-1.5-0.4-2.9-0.4-4.4c0.1-8.7-0.1-17.4,0.1-26.1
		C159.2,60.9,160.1,56.6,163.3,53.8L163.3,53.8z"/>
	<path id="path13" class="st0" d="M248.6,50.4c7.2-1.4,15.1-1.7,21.9,1.5c6.3,3.2,7.9,10.7,8.2,17c0.1,6.9,0.5,14.5-3.4,20.6
		c-3.6,5.5-11.1,6.8-17.3,6.6c-6,0.2-12.8-0.7-17-5.3c-4.6-5.5-4.5-13-4.5-19.7c0.2-5.5,0.7-11.5,4.2-16
		C242.6,52.8,245.5,51.2,248.6,50.4 M252.7,58.3c-2.8,0.6-4.9,3-5.5,5.7c-1,5.8-1,11.8,0,17.6c0.6,2.3,1.9,4.7,4.4,5.5
		c3.7,1.2,7.7,1.1,11.4,0.2c2.7-0.5,4.4-3,5-5.4c1.1-6,1.1-12.1,0-18.1c-0.7-2.8-3-5.2-6-5.6C258.9,57.8,255.7,57.7,252.7,58.3z"/>
	<path id="path15" class="st0" d="M358.6,51.7c6.7-3.2,14.5-2.4,21.7-1.3c0.9,0.3,2.8,0,2.9,1.3c0.1,2.2,0.1,4.4,0,6.5
		c-0.3,0.1-0.9,0.3-1.1,0.5c-5.2-0.9-10.5-1.8-15.7-1c-2.1,0.3-4.7,1.5-4.6,3.9c-0.5,2,1.3,3.4,3,4.2c5.7,2.6,12.3,3.7,17.3,7.6
		c4.3,3.1,4.7,9,3.3,13.6c-2.1,5.9-8.8,8.7-14.8,9c-5.7,0.3-11.7,0.1-17.1-2c-1-2.4-0.4-5.3-0.3-7.9c6.5,1.5,13.5,3.2,20,1.1
		c3.4-0.9,4.6-5.6,1.7-7.6c-5.8-3.5-13.1-4.1-18.6-8.1C349.9,66.5,351.3,55.3,358.6,51.7L358.6,51.7z"/>
	<path id="path17" class="st0" d="M424.9,52.2c-0.3-1.1,1-1.8,2-1.9c6.7-0.9,13.6-1.4,20.3,0c4.3,1.1,8.5,3.6,10.3,7.6
		c2.3,4.9,1.4,10.4,1.6,15.5c-0.1,5.1,0.6,10.6-1.8,15.3c-2.3,4.6-7.8,6.5-12.6,7.1c-6.1,0.4-12.6,0.4-18.1-2.5
		c-9-4.9-8.7-19.7,0.5-24.2c6.8-3.5,14.7-2.3,22-1.5c0.2-3.3-0.4-7.5-3.9-8.9c-6.6-2.5-13.6-0.4-20.4-0.5
		C424.9,56.3,424.8,54.2,424.9,52.2 M431.5,85.6c2.7,2.9,7.1,2.6,10.8,2.5c2.5-0.1,5.4-1.1,6.4-3.5c0.8-2.9,0.4-5.9,0.6-8.9
		c-4.6-1.2-9.6-1.5-14.3-0.6C430.2,76,428.4,82.3,431.5,85.6z"/>
	<path id="path19" class="st0" d="M471.3,54.1c5.2-5,13.1-4.9,19.9-4.4c0.2,2.7,0.1,5.3,0,8c-3.8,0.6-8.1-0.7-11.4,1.7
		c-2,1.4-2.2,4-2.3,6.2c-0.2,9.9,0,19.7-0.1,29.6c-3.2,0.4-6.4,0.1-9.6,0.2c-0.8-8-0.1-16.1-0.3-24.2
		C467.7,65.4,466.7,58.6,471.3,54.1z"/>
	<path id="path21" class="st0" d="M284.1,50.5c3.4-0.1,6.9-0.4,10.3,0.2c0.8,12.2,4.4,24.2,10,35.2c1-1.2,1.5-2.6,2.1-4
		c4.4-9.9,7.4-20.4,8-31.2c3.4-0.6,6.9-0.3,10.3-0.2c-0.5,15.5-7.2,30.1-14.4,43.7c-0.5,1.5-2.3,1.1-3.5,1.2
		c-2.5-0.1-5.1,0.2-7.6-0.2c-0.2-0.2-0.6-0.7-0.8-1C291,80.7,284.5,66,284.1,50.5L284.1,50.5z"/>
	<path id="path23" class="st0" d="M333,50.5c3.3-0.2,6.6-0.2,9.8,0c0.1,14.8,0.2,29.7,0,44.5c-3,0.8-6.4,0.1-9.6,0.4
		C333,80.4,332.8,65.5,333,50.5z"/>
</g>
</svg>
