<?xml version="1.0" encoding="UTF-8" standalone="no"?>
<svg
   xmlns:dc="http://purl.org/dc/elements/1.1/"
   xmlns:cc="http://creativecommons.org/ns#"
   xmlns:rdf="http://www.w3.org/1999/02/22-rdf-syntax-ns#"
   xmlns:svg="http://www.w3.org/2000/svg"
   xmlns="http://www.w3.org/2000/svg"
   xmlns:sodipodi="http://sodipodi.sourceforge.net/DTD/sodipodi-0.dtd"
   xmlns:inkscape="http://www.inkscape.org/namespaces/inkscape"
   width="604pt"
   height="118pt"
   viewBox="0 0 604 118"
   version="1.1"
   id="svg26"
   sodipodi:docname="Logo_Movistar.svg"
   inkscape:version="0.92.2 (5c3e80d, 2017-08-06)">
  <metadata
     id="metadata32">
    <rdf:RDF>
      <cc:Work
         rdf:about="">
        <dc:format>image/svg+xml</dc:format>
        <dc:type
           rdf:resource="http://purl.org/dc/dcmitype/StillImage" />
      </cc:Work>
    </rdf:RDF>
  </metadata>
  <defs
     id="defs30" />
  <sodipodi:namedview
     pagecolor="#ffffff"
     bordercolor="#666666"
     borderopacity="1"
     objecttolerance="10"
     gridtolerance="10"
     guidetolerance="10"
     inkscape:pageopacity="0"
     inkscape:pageshadow="2"
     inkscape:window-width="1920"
     inkscape:window-height="1028"
     id="namedview28"
     showgrid="false"
     inkscape:zoom="1.2257298"
     inkscape:cx="668.52459"
     inkscape:cy="-75.594385"
     inkscape:window-x="-8"
     inkscape:window-y="-8"
     inkscape:window-maximized="1"
     inkscape:current-layer="svg26" />
  <g
     id="#00abe1ff">
    <path
       d="m 125.21,1.18 c 4.94,-0.77 10.42,-0.88 14.81,1.91 6.34,3.77 9.96,10.6 12.46,17.3 7.03,19.32 7.7,40.45 4.75,60.64 -0.66,5.17 -2.64,11.01 -7.71,13.36 -3,1.01 -6.84,0.74 -8.92,-1.92 -3.36,-4.06 -2.3,-9.66 -2.02,-14.49 1.09,-7.63 1.51,-15.37 1.16,-23.06 -0.03,-3.51 -1.21,-7.31 -4.22,-9.38 -2.54,-1.92 -6.21,-1.55 -8.73,0.21 -4.27,2.77 -7.07,7.23 -9.36,11.67 -5.62,11.57 -8.73,24.12 -12.92,36.23 -2.1,5.63 -5.49,10.99 -10.52,14.42 -6.03,4.25 -13.69,5.37 -20.91,5.11 -9.22,-0.44 -17.52,-6.23 -22.36,-13.89 -6.03,-9.75 -11.4,-19.9 -17.29,-29.73 -1.87,-2.86 -4.39,-6.52 -8.29,-6.1 -4.1,0.38 -5.65,4.97 -5.52,8.51 0.29,12.13 6.16,23.18 8.25,34.99 0.73,3.64 -0.31,8.21 -3.98,9.86 -2.24,0.31 -4.59,0.59 -6.81,0.01 -3.26,-1.24 -4.95,-4.61 -6.41,-7.54 C 5.58,97.09 2.41,84.14 0.78,71.05 1.01,64.34 0.38,57.54 1.8,50.92 3.74,40.12 6.71,28.69 14.72,20.71 c 6.9,-6.99 18.78,-9.07 27.15,-3.56 8.12,5.63 13.14,14.37 18.47,22.45 3.91,6.22 7.56,13.54 14.74,16.53 4.95,2.41 11.3,0.93 14.94,-3.12 2.61,-2.69 3.9,-6.28 5.28,-9.69 2.93,-7.34 5.85,-14.67 9.06,-21.89 3.65,-9.25 10.84,-17.85 20.85,-20.25 z"
       id="path7"
       inkscape:connector-curvature="0"
       style="opacity:1;fill:#00abe1" />
    <path
       d="m 484.27,24.47 c 3.74,-0.29 7.5,-0.12 11.24,0.01 0.28,3.76 -0.23,7.55 0.34,11.29 3.83,-0.13 7.68,-0.24 11.51,0.06 0.1,3.33 0.46,6.7 -0.25,9.99 -3.82,-0.07 -7.63,-0.05 -11.44,0.02 -0.18,8.04 -0.04,16.1 -0.09,24.14 0.04,3.41 -0.01,7.33 2.59,9.91 2.58,2.47 6.46,2.09 9.76,2.39 0.47,3.45 0.51,6.97 -0.13,10.4 -6.27,0.07 -13.17,-0.05 -18.29,-4.19 -4.6,-3.66 -5.91,-9.83 -6.06,-15.42 -0.09,-15 0.06,-30.01 -0.06,-45.01 0.26,-1.1 -0.61,-3.2 0.88,-3.59 z"
       id="path9"
       inkscape:connector-curvature="0"
       style="opacity:1;fill:#00abe1" />
    <path
       d="m 201.02,40.03 c 5.67,-5.09 13.75,-5.72 21.02,-5.45 5.92,-0.02 11.86,1.61 16.53,5.31 5.23,-5.43 13.34,-5.45 20.34,-5.31 6.39,0 13.22,1.9 17.53,6.88 3.18,3.73 3.77,8.83 3.87,13.55 0.04,9.97 0,19.94 0.02,29.92 -0.02,2.59 0.28,5.25 -0.54,7.75 -3.72,-0.16 -7.44,0.17 -11.14,-0.19 l -0.39,-0.56 c -0.4,-12.99 0.36,-26.02 -0.42,-39 0.07,-4.17 -3.79,-7.23 -7.71,-7.51 -4.47,-0.28 -9.67,-0.82 -13.32,2.35 -2.72,2.24 -2.4,6.07 -2.57,9.24 -0.12,10.32 -0.07,20.65 -0.04,30.97 -0.25,1.45 0.47,3.52 -0.78,4.58 -3.79,0.13 -7.63,0.27 -11.41,-0.17 0,-13.17 0.31,-26.34 -0.32,-39.5 -0.02,-4.44 -4.45,-7.42 -8.56,-7.54 -3.77,-0.19 -7.87,-0.49 -11.27,1.45 -2.2,1.22 -3.53,3.64 -3.59,6.13 -0.86,13.22 -0.05,26.48 -0.55,39.71 -3.83,0 -7.66,-0.03 -11.48,0.03 -0.38,-1.85 -0.55,-3.73 -0.48,-5.61 0.13,-11.03 -0.1,-22.06 0.11,-33.08 0.06,-5.03 1.2,-10.49 5.15,-13.95 z"
       id="path11"
       inkscape:connector-curvature="0"
       style="opacity:1;fill:#00abe1" />
    <path
       d="m 305.49,35.72 c 8.8,-1.74 18.56,-2.1 26.83,1.91 7.78,3.99 9.74,13.49 10.06,21.47 0.12,8.76 0.65,18.34 -4.15,26.09 -4.46,6.99 -13.55,8.6 -21.23,8.42 -7.36,0.2 -15.73,-0.85 -20.89,-6.67 -5.58,-6.96 -5.53,-16.48 -5.54,-24.95 0.22,-6.93 0.84,-14.51 5.19,-20.22 2.4,-3.09 6.01,-5.02 9.73,-6.05 m 5.01,9.93 c -3.48,0.74 -6.03,3.79 -6.71,7.19 -1.25,7.36 -1.25,14.93 -0.04,22.29 0.69,2.9 2.34,5.93 5.34,6.91 4.48,1.48 9.42,1.4 13.98,0.3 3.32,-0.68 5.43,-3.76 6.19,-6.87 1.36,-7.56 1.3,-15.33 -0.01,-22.89 -0.89,-3.49 -3.65,-6.56 -7.34,-7.07 -3.78,-0.45 -7.66,-0.52 -11.41,0.14 z"
       id="path13"
       inkscape:connector-curvature="0"
       style="opacity:1;fill:#00abe1" />
    <path
       d="m 440.35,37.4 c 8.19,-4.09 17.81,-2.99 26.55,-1.68 1.13,0.44 3.39,0.04 3.61,1.67 0.14,2.75 0.11,5.52 0.05,8.28 -0.35,0.14 -1.05,0.43 -1.4,0.57 -6.33,-1.1 -12.84,-2.23 -19.26,-1.21 -2.52,0.43 -5.73,1.94 -5.69,4.92 -0.57,2.54 1.64,4.31 3.64,5.29 7.04,3.23 15.02,4.73 21.24,9.57 5.21,3.97 5.73,11.42 4.07,17.28 -2.63,7.44 -10.76,10.97 -18.14,11.37 -7.02,0.32 -14.39,0.13 -20.95,-2.59 -1.25,-3.08 -0.46,-6.7 -0.35,-9.98 7.96,1.92 16.51,4.02 24.56,1.41 4.12,-1.09 5.63,-7.08 2.06,-9.66 -7.14,-4.38 -16.03,-5.23 -22.83,-10.26 -7.85,-6.33 -6.12,-20.47 2.84,-24.98 z"
       id="path15"
       inkscape:connector-curvature="0"
       style="opacity:1;fill:#00abe1" />
    <path
       d="m 521.66,38.01 c -0.36,-1.45 1.23,-2.29 2.42,-2.35 8.23,-1.11 16.69,-1.79 24.88,0.01 5.24,1.33 10.37,4.54 12.63,9.64 2.86,6.17 1.77,13.12 1.98,19.69 -0.14,6.48 0.73,13.38 -2.15,19.43 -2.78,5.8 -9.52,8.21 -15.49,8.98 -7.45,0.46 -15.44,0.55 -22.15,-3.19 -11.04,-6.18 -10.61,-24.98 0.67,-30.69 8.32,-4.39 18.07,-2.96 27.01,-1.94 0.24,-4.2 -0.43,-9.44 -4.8,-11.33 -8.03,-3.11 -16.69,-0.51 -24.97,-0.58 -0.02,-2.56 -0.12,-5.12 -0.03,-7.67 m 8.09,42.22 c 3.34,3.62 8.73,3.35 13.24,3.19 3.05,-0.11 6.57,-1.39 7.8,-4.43 1.04,-3.64 0.52,-7.49 0.69,-11.23 -5.69,-1.48 -11.79,-1.84 -17.57,-0.71 -5.76,1.05 -8.01,8.99 -4.16,13.18 z"
       id="path17"
       inkscape:connector-curvature="0"
       style="opacity:1;fill:#00abe1" />
    <path
       d="m 578.56,40.41 c 6.33,-6.38 16.11,-6.22 24.45,-5.63 0.24,3.38 0.17,6.77 -0.06,10.15 -4.61,0.79 -9.97,-0.92 -13.96,2.14 -2.46,1.79 -2.72,5.1 -2.8,7.88 -0.23,12.48 0,24.97 -0.12,37.45 -3.91,0.51 -7.85,0.09 -11.77,0.31 -0.96,-10.16 -0.15,-20.44 -0.42,-30.65 0.19,-7.33 -0.97,-15.93 4.68,-21.65 z"
       id="path19"
       inkscape:connector-curvature="0"
       style="opacity:1;fill:#00abe1" />
    <path
       d="m 349.03,35.79 c 4.22,-0.07 8.51,-0.54 12.68,0.31 1.01,15.47 5.39,30.68 12.23,44.56 1.17,-1.51 1.9,-3.29 2.61,-5.05 5.36,-12.52 9.07,-25.88 9.81,-39.53 4.15,-0.8 8.41,-0.39 12.61,-0.26 -0.56,19.68 -8.82,38.11 -17.68,55.35 -0.62,1.86 -2.81,1.39 -4.29,1.49 -3.1,-0.1 -6.22,0.21 -9.29,-0.21 -0.25,-0.31 -0.75,-0.93 -1,-1.24 -9.26,-17.1 -17.15,-35.69 -17.68,-55.42 z"
       id="path21"
       inkscape:connector-curvature="0"
       style="opacity:1;fill:#00abe1" />
    <path
       d="m 408.98,35.84 c 4,-0.3 8.03,-0.26 12.04,-0.04 0.17,18.79 0.28,37.62 -0.04,56.4 -3.7,1.07 -7.87,0.1 -11.74,0.47 -0.21,-18.93 -0.52,-37.89 -0.26,-56.83 z"
       id="path23"
       inkscape:connector-curvature="0"
       style="opacity:1;fill:#00abe1" />
  </g>
</svg>
